<?xml version="1.0" encoding="utf-8"?>
<!-- Generator: Adobe Illustrator 22.0.1, SVG Export Plug-In . SVG Version: 6.00 Build 0)  -->
<svg version="1.1" id="Layer_1" xmlns="http://www.w3.org/2000/svg" xmlns:xlink="http://www.w3.org/1999/xlink" x="0px" y="0px"
	 viewBox="0 0 24 24" style="enable-background:new 0 0 24 24;" xml:space="preserve">
<polygon points="21,19.6 19.6,21 16.6,18 19,18 19,17.6 "/>
<polygon points="15,14 15,16.4 13.1,14.6 13.7,14 "/>
<path d="M20.3,6c-2-2-4.6-3-7.2-3C10.5,3,8,4,6,6l0,0C2,9.9,2,16.3,6,20.3l6.3-6.3H11v-1.6l-2,2c-1.3-2-1.9-4.5-1.4-6.8
	c0.6-0.1,1.2-0.2,1.8-0.2c1.8,0,3.6,0.5,5.1,1.6l-1,1H15V7c-1.4-0.8-3-1.3-4.5-1.5C11.3,5.2,12.2,5,13.1,5c1.4,0,2.7,0.3,3.9,1h2
	v1.2L20.3,6z M7.5,15.9l-1.4,1.4C5.4,16,5,14.6,5,13.1c0-0.9,0.2-1.8,0.5-2.7C5.7,12.4,6.3,14.2,7.5,15.9z"/>
<polygon points="22,11 22,13 18,13 18,17 16,17 16,13 12,13 12,11 16,11 16,7 18,7 18,11 "/>
</svg>
