<?xml version="1.0" encoding="utf-8"?>
<!-- Generator: Adobe Illustrator 22.0.1, SVG Export Plug-In . SVG Version: 6.00 Build 0)  -->
<svg version="1.1" id="Layer_1" xmlns="http://www.w3.org/2000/svg" xmlns:xlink="http://www.w3.org/1999/xlink" x="0px" y="0px"
	 viewBox="0 0 24 24" style="enable-background:new 0 0 24 24;" xml:space="preserve">
<path d="M19.4,18h-2.9l3,3l1.4-1.4L19.4,18z M13.1,14.6l0.9,0.9v-1.7L13.1,14.6z M13.1,3C10.5,3,8,4,6,6l0,0C2,9.9,2,16.3,6,20.3
	l8-8V9.4l-5,5c-1.3-2-1.9-4.5-1.4-6.8c0.6-0.1,1.2-0.2,1.8-0.2c1.6,0,3.2,0.5,4.7,1.3V6.4c-1.1-0.5-2.3-0.9-3.5-1
	C11.3,5.2,12.2,5,13.1,5c1.4,0,2.7,0.3,3.9,1h3.2l0,0C18.3,4,15.7,3,13.1,3z M7.5,15.9l-1.4,1.4C5.4,16,5,14.6,5,13.1
	c0-0.9,0.2-1.8,0.5-2.7C5.7,12.4,6.3,14.2,7.5,15.9z"/>
<rect x="15" y="7" width="2" height="10"/>
<rect x="19" y="7" width="2" height="10"/>
</svg>
