<?xml version="1.0" encoding="utf-8"?>
<!-- Generator: Adobe Illustrator 22.0.1, SVG Export Plug-In . SVG Version: 6.00 Build 0)  -->
<svg version="1.1" id="Layer_1" xmlns="http://www.w3.org/2000/svg" xmlns:xlink="http://www.w3.org/1999/xlink" x="0px" y="0px"
	 viewBox="0 0 24 24" style="enable-background:new 0 0 24 24;" xml:space="preserve">
<path d="M15.4,14h-1.7l-0.6,0.6l6.4,6.4l1.4-1.4L15.4,14z"/>
<path d="M13.1,3C10.5,3,8,4,6,6l0,0C2,9.9,2,16.3,6,20.3l6.3-6.3H11v-1.6l-2,2c-1.3-2-1.9-4.5-1.4-6.8c0.6-0.1,1.2-0.2,1.8-0.2
	c1.8,0,3.6,0.5,5.1,1.6l-1,1h2.8l4-4C18.3,4,15.7,3,13.1,3z M7.5,15.9l-1.4,1.4C5.4,16,5,14.6,5,13.1c0-0.9,0.2-1.8,0.5-2.7
	C5.7,12.4,6.3,14.2,7.5,15.9z M15.9,7.5c-1.7-1.2-3.5-1.9-5.4-2.1C11.3,5.2,12.2,5,13.1,5c1.5,0,2.9,0.4,4.2,1.1L15.9,7.5z"/>
<rect x="12" y="11" width="10" height="2"/>
</svg>
