<svg xmlns="http://www.w3.org/2000/svg" width="3" height="3" viewBox="0 0 3 3"><title>sand_pattern_middle</title><path d="M3,1.15a1.08,1.08,0,0,1-.44-.09,1.08,1.08,0,0,1,.09.44,1.08,1.08,0,0,1-.09.44A1.08,1.08,0,0,1,3,1.85V3H1.85a1.08,1.08,0,0,1,.09-.44,1.08,1.08,0,0,1-.44.09,1.22,1.22,0,0,1-.43-.08A1.15,1.15,0,0,1,1.15,3V3H0V1.83a1.22,1.22,0,0,1,.43.08A1.11,1.11,0,0,1,.35,1.5a1.08,1.08,0,0,1,.09-.44A1.08,1.08,0,0,1,0,1.15V0H1.15a1.08,1.08,0,0,1-.09.44A1.08,1.08,0,0,1,1.5.35a1.08,1.08,0,0,1,.44.09A1.08,1.08,0,0,1,1.85,0H3Z"/></svg>